<?xml version="1.0" encoding="UTF-8" standalone="no" ?>
<!DOCTYPE svg PUBLIC "-//W3C//DTD SVG 1.1//EN" "http://www.w3.org/Graphics/SVG/1.1/DTD/svg11.dtd">
<svg xmlns="http://www.w3.org/2000/svg" xmlns:xlink="http://www.w3.org/1999/xlink" version="1.1" width="1280" height="1024" viewBox="0 0 1280 1024" xml:space="preserve">
<desc>Created with Fabric.js 3.6.3</desc>
<defs>
</defs>
<g transform="matrix(1.9662058371735789 0 0 1.9662058371735789 640.2456813819576 512.1966205837173)" id="background-logo"  >
<rect style="stroke: none; stroke-width: 1; stroke-dasharray: none; stroke-linecap: butt; stroke-dashoffset: 0; stroke-linejoin: miter; stroke-miterlimit: 4; fill: rgb(255,255,255); fill-rule: nonzero; opacity: 1;"  paint-order="stroke"  x="-325" y="-260" rx="0" ry="0" width="650" height="520" />
</g>
<g transform="matrix(1.9699870022450665 0 0 1.9699870022450665 638.1116891141447 752.100911455217)" id="text-logo-path"  >
<path style="stroke: rgb(130,2,49); stroke-width: 2; stroke-dasharray: none; stroke-linecap: butt; stroke-dashoffset: 0; stroke-linejoin: miter; stroke-miterlimit: 10; fill: rgb(254,110,124); fill-rule: nonzero; opacity: 1;"  paint-order="stroke"  transform=" translate(-257.015, 15.697940991530217)" d="M 1.42 -8.94 L 1.42 -8.94 L 4.56 -10.83 Q 7.87 -4.73 12.2 -4.73 L 12.2 -4.73 Q 14.07 -4.73 15.71 -5.6 Q 17.36 -6.47 18.2 -7.92 Q 19.05 -9.36 19.05 -11.01 L 19.05 -11.01 Q 19.05 -12.85 17.81 -14.64 L 17.81 -14.64 Q 16.06 -17.11 11.46 -19.67 L 11.46 -19.67 Q 6.82 -23.16 5.73 -24.73 L 5.73 -24.73 Q 3.76 -27.32 3.76 -30.38 L 3.76 -30.38 Q 3.76 -32.8 4.91 -34.76 Q 6.05 -36.73 8.16 -37.89 Q 10.26 -39.05 12.73 -39.05 L 12.73 -39.05 Q 15.31 -39.05 17.58 -37.74 Q 19.85 -36.43 22.39 -32.97 L 22.39 -32.97 L 19.37 -30.7 Q 17.31 -33.44 15.84 -34.33 Q 14.37 -35.21 12.63 -35.21 L 12.63 -35.21 Q 10.41 -35.21 8.99 -33.85 Q 7.57 -32.5 7.57 -30.53 L 7.57 -30.53 Q 7.57 -29.33 8.07 -28.19 Q 8.57 -27.04 9.91 -25.75 L 9.91 -25.75 Q 10.63 -25.03 14.69 -22.04 L 14.69 -22.04 Q 19.47 -18.5 21.25 -16.19 Q 23.03 -13.87 23.03 -11.11 L 23.03 -11.11 Q 23.03 -7.07 19.98 -4.11 Q 16.93 -1.15 12.58 -1.15 L 12.58 -1.15 Q 9.19 -1.15 6.45 -2.94 Q 3.71 -4.73 1.42 -8.94 Z M 39.32 -5.28 L 39.32 -5.28 Q 36.73 -3.88 34.24 -5.06 L 34.24 -5.06 Q 31.2 -7.37 31.35 -11.65 L 31.35 -11.65 L 31.35 -23.21 L 37.83 -23.21 L 37.83 -26.22 L 31.33 -26.22 L 31.33 -39.42 L 27.79 -39.42 L 27.79 -11.06 Q 27.74 -8.07 29.16 -5.58 L 29.16 -5.58 Q 31.5 -1.62 35.54 -1.39 L 35.54 -1.39 Q 37.68 -1.32 40.42 -2.37 L 40.42 -2.37 Q 39.99 -3.41 39.32 -5.28 Z M 58.92 -30.08 L 58.92 -30.08 Q 65.22 -30.08 69.38 -25.52 L 69.38 -25.52 Q 73.21 -21.37 73.21 -15.64 L 73.21 -15.64 Q 73.26 -1.49 73.21 -1.27 L 73.21 -1.27 Q 70.82 -1.27 69.5 -1.27 L 69.5 -1.27 Q 69.5 -1.44 69.5 -7.47 L 69.5 -7.47 Q 66.59 -2.04 58.92 -1.39 L 58.92 -1.39 Q 52.64 -1.39 48.67 -5.67 Q 44.7 -9.94 44.7 -15.64 L 44.7 -15.64 Q 44.7 -21.32 48.46 -25.5 L 48.46 -25.5 Q 52.62 -30.08 58.92 -30.08 Z M 58.92 -26.65 L 58.92 -26.65 Q 54.56 -26.65 51.42 -23.41 Q 48.29 -20.17 48.29 -15.59 L 48.29 -15.59 Q 48.29 -12.63 49.89 -9.89 Q 51.5 -7.15 55.33 -5.25 L 55.33 -5.25 Q 64.95 -3.11 69 -14 L 69 -14 Q 69.23 -17.48 68.26 -20.67 L 68.26 -20.67 Q 67.56 -22.11 66.34 -23.41 L 66.34 -23.41 Q 63.28 -26.65 58.92 -26.65 Z M 78.69 -1.47 L 78.69 -13.92 L 78.69 -17.21 Q 79.09 -19.67 79.84 -21.22 L 79.84 -21.22 Q 81.58 -25.5 84.52 -27.49 Q 87.46 -29.48 89.4 -29.48 L 89.4 -29.48 Q 90.84 -29.48 92.49 -28.54 L 92.49 -28.54 L 90.67 -25.6 Q 88.35 -26.45 86.07 -24.23 Q 83.8 -22.01 82.92 -19.4 L 82.92 -19.4 Q 82.28 -17.08 82.28 -10.71 L 82.28 -10.71 L 82.28 -1.47 L 78.69 -1.47 Z M 143.21 -31.33 L 143.21 -31.33 L 140.27 -29.14 Q 137.88 -32.27 134.51 -33.88 Q 131.14 -35.49 127.1 -35.49 L 127.1 -35.49 Q 122.67 -35.49 118.91 -33.37 Q 115.15 -31.25 113.07 -27.68 Q 110.99 -24.11 110.99 -19.62 L 110.99 -19.62 Q 110.99 -12.87 115.62 -8.75 Q 120.25 -4.63 127.3 -4.63 L 127.3 -4.63 Q 135.07 -4.63 140.27 -10.71 L 140.27 -10.71 L 143.21 -8.49 Q 140.45 -4.98 136.32 -3.06 Q 132.18 -1.15 127.1 -1.15 L 127.1 -1.15 Q 117.39 -1.15 111.79 -7.6 L 111.79 -7.6 Q 107.1 -13.05 107.1 -19.95 L 107.1 -19.95 Q 107.1 -28.04 112.8 -33.59 Q 118.49 -39.15 127.03 -39.15 L 127.03 -39.15 Q 132.21 -39.15 136.38 -37.09 Q 140.55 -35.04 143.21 -31.33 Z M 162.91 -30.08 L 162.91 -30.08 Q 169.21 -30.08 173.37 -25.52 L 173.37 -25.52 Q 177.21 -21.37 177.21 -15.64 L 177.21 -15.64 Q 177.25 -1.49 177.21 -1.27 L 177.21 -1.27 Q 174.81 -1.27 173.49 -1.27 L 173.49 -1.27 Q 173.49 -1.44 173.49 -7.47 L 173.49 -7.47 Q 170.58 -2.04 162.91 -1.39 L 162.91 -1.39 Q 156.64 -1.39 152.66 -5.67 Q 148.69 -9.94 148.69 -15.64 L 148.69 -15.64 Q 148.69 -21.32 152.45 -25.5 L 152.45 -25.5 Q 156.61 -30.08 162.91 -30.08 Z M 162.91 -26.65 L 162.91 -26.65 Q 158.55 -26.65 155.42 -23.41 Q 152.28 -20.17 152.28 -15.59 L 152.28 -15.59 Q 152.28 -12.63 153.88 -9.89 Q 155.49 -7.15 159.33 -5.25 L 159.33 -5.25 Q 168.94 -3.11 173 -14 L 173 -14 Q 173.22 -17.48 172.25 -20.67 L 172.25 -20.67 Q 171.55 -22.11 170.33 -23.41 L 170.33 -23.41 Q 167.27 -26.65 162.91 -26.65 Z M 186.22 -24.65 L 186.22 -24.65 Q 183.98 -20.92 183.53 -17.31 L 183.53 -17.31 Q 183.53 8.62 183.53 8.57 L 183.53 8.57 L 187.02 8.57 L 187.02 -6.67 Q 189.23 -3.96 191.97 -2.63 Q 194.71 -1.29 197.97 -1.29 L 197.97 -1.29 Q 203.75 -1.29 207.86 -5.5 Q 211.97 -9.71 211.97 -15.71 L 211.97 -15.71 Q 211.97 -21.62 207.83 -25.8 Q 203.7 -29.98 197.87 -29.98 L 197.87 -29.98 Q 194.54 -29.98 191.61 -28.7 Q 188.69 -27.42 186.22 -24.65 Z M 197.58 -26.62 L 197.58 -26.62 Q 200.54 -26.62 203.02 -25.16 Q 205.49 -23.71 206.96 -21.12 Q 208.43 -18.53 208.43 -15.59 L 208.43 -15.59 Q 208.43 -12.7 206.95 -10.05 Q 205.47 -7.4 202.97 -5.94 Q 200.46 -4.48 197.63 -4.48 L 197.63 -4.48 Q 194.74 -4.48 192.15 -5.94 Q 189.56 -7.4 188.16 -9.9 Q 186.77 -12.4 186.77 -15.49 L 186.77 -15.49 Q 186.77 -20.25 189.91 -23.43 Q 193.04 -26.62 197.58 -26.62 Z M 220.24 -39.97 L 220.24 -39.97 Q 221.43 -39.97 222.29 -39.12 Q 223.15 -38.27 223.15 -37.08 L 223.15 -37.08 Q 223.15 -35.88 222.29 -35.03 Q 221.43 -34.17 220.24 -34.17 L 220.24 -34.17 Q 219.04 -34.17 218.19 -35.03 Q 217.35 -35.88 217.35 -37.08 L 217.35 -37.08 Q 217.35 -38.27 218.19 -39.12 Q 219.04 -39.97 220.24 -39.97 Z M 218.49 -1.42 L 218.49 -28.74 L 222 -28.74 L 222 -1.42 L 218.49 -1.42 Z M 239.11 -5.28 L 239.11 -5.28 Q 236.52 -3.88 234.03 -5.06 L 234.03 -5.06 Q 230.99 -7.37 231.14 -11.65 L 231.14 -11.65 L 231.14 -23.21 L 237.62 -23.21 L 237.62 -26.22 L 231.12 -26.22 L 231.12 -39.42 L 227.58 -39.42 L 227.58 -11.06 Q 227.53 -8.07 228.95 -5.58 L 228.95 -5.58 Q 231.29 -1.62 235.33 -1.39 L 235.33 -1.39 Q 237.47 -1.32 240.21 -2.37 L 240.21 -2.37 Q 239.78 -3.41 239.11 -5.28 Z M 258.71 -30.08 L 258.71 -30.08 Q 265.01 -30.08 269.17 -25.52 L 269.17 -25.52 Q 273 -21.37 273 -15.64 L 273 -15.64 Q 273.05 -1.49 273 -1.27 L 273 -1.27 Q 270.61 -1.27 269.29 -1.27 L 269.29 -1.27 Q 269.29 -1.44 269.29 -7.47 L 269.29 -7.47 Q 266.38 -2.04 258.71 -1.39 L 258.71 -1.39 Q 252.44 -1.39 248.46 -5.67 Q 244.49 -9.94 244.49 -15.64 L 244.49 -15.64 Q 244.49 -21.32 248.25 -25.5 L 248.25 -25.5 Q 252.41 -30.08 258.71 -30.08 Z M 258.71 -26.65 L 258.71 -26.65 Q 254.35 -26.65 251.21 -23.41 Q 248.08 -20.17 248.08 -15.59 L 248.08 -15.59 Q 248.08 -12.63 249.68 -9.89 Q 251.29 -7.15 255.12 -5.25 L 255.12 -5.25 Q 264.74 -3.11 268.8 -14 L 268.8 -14 Q 269.02 -17.48 268.05 -20.67 L 268.05 -20.67 Q 267.35 -22.11 266.13 -23.41 L 266.13 -23.41 Q 263.07 -26.65 258.71 -26.65 Z M 279.28 -1.42 L 279.28 -39.3 L 282.82 -39.3 L 282.82 -1.42 L 279.28 -1.42 Z M 304.53 -1.47 L 304.53 -38.4 L 311.88 -38.4 Q 318.03 -38.4 320.22 -37.9 L 320.22 -37.9 Q 323.51 -37.15 325.57 -34.68 Q 327.64 -32.2 327.64 -28.59 L 327.64 -28.59 Q 327.64 -25.55 326.22 -23.28 Q 324.8 -21.02 322.15 -19.83 Q 319.5 -18.65 317.55 -18.65 L 317.55 -18.65 L 328.14 -1.47 L 323.61 -1.47 L 313.02 -18.65 L 308.22 -18.65 L 308.22 -1.47 L 304.53 -1.47 Z M 314.72 -34.79 L 308.22 -34.79 L 308.22 -22.24 L 314.57 -22.19 Q 318.25 -22.19 320.03 -22.89 Q 321.81 -23.58 322.8 -25.13 Q 323.78 -26.67 323.78 -28.59 L 323.78 -28.59 Q 323.78 -30.43 322.77 -31.95 Q 321.76 -33.47 320.14 -34.13 Q 318.53 -34.79 314.72 -34.79 L 314.72 -34.79 Z M 357.92 -11.13 L 357.92 -11.13 L 360.86 -9.56 Q 359.44 -6.7 357.52 -4.96 Q 355.61 -3.21 353.21 -2.3 Q 350.82 -1.39 347.81 -1.39 L 347.81 -1.39 Q 341.14 -1.39 337.38 -5.76 Q 333.62 -10.14 333.62 -15.64 L 333.62 -15.64 Q 333.62 -20.84 336.8 -24.9 L 336.8 -24.9 Q 340.84 -30.08 347.64 -30.08 L 347.64 -30.08 Q 354.58 -30.08 358.77 -24.78 L 358.77 -24.78 Q 361.73 -21.04 361.76 -15.46 L 361.76 -15.46 L 337.23 -15.46 Q 337.33 -10.68 340.27 -7.63 Q 343.2 -4.58 347.51 -4.58 L 347.51 -4.58 Q 349.6 -4.58 351.57 -5.32 Q 353.54 -6.05 354.92 -7.25 Q 356.3 -8.44 357.92 -11.13 Z M 337.6 -18.48 L 357.92 -18.48 Q 357.22 -21.29 355.88 -22.97 Q 354.53 -24.65 352.32 -25.69 Q 350.1 -26.72 347.66 -26.72 L 347.66 -26.72 Q 343.65 -26.72 340.76 -24.13 L 340.76 -24.13 Q 338.67 -22.24 337.6 -18.48 L 337.6 -18.48 Z M 382.03 -26.4 L 382.03 -26.4 L 379.79 -24.06 Q 376.95 -26.79 374.28 -26.79 L 374.28 -26.79 Q 372.56 -26.79 371.34 -25.67 Q 370.12 -24.55 370.12 -23.01 L 370.12 -23.01 Q 370.12 -21.71 371.14 -20.52 L 371.14 -20.52 Q 372.14 -19.25 375.35 -17.61 L 375.35 -17.61 Q 379.29 -15.59 380.68 -13.7 L 380.68 -13.7 Q 382.05 -11.78 382.05 -9.39 L 382.05 -9.39 Q 382.05 -6.05 379.7 -3.72 Q 377.35 -1.39 373.81 -1.39 L 373.81 -1.39 Q 371.44 -1.39 369.29 -2.4 Q 367.14 -3.41 365.74 -5.23 L 365.74 -5.23 L 367.96 -7.74 Q 370.65 -4.71 373.66 -4.71 L 373.66 -4.71 Q 375.75 -4.71 377.23 -6.06 Q 378.71 -7.42 378.71 -9.24 L 378.71 -9.24 Q 378.71 -10.76 377.74 -11.93 L 377.74 -11.93 Q 376.77 -13.1 373.34 -14.87 L 373.34 -14.87 Q 369.63 -16.73 368.31 -18.63 L 368.31 -18.63 Q 366.96 -20.47 366.96 -22.86 L 366.96 -22.86 Q 366.96 -25.97 369.09 -28.03 Q 371.22 -30.08 374.43 -30.08 L 374.43 -30.08 Q 378.19 -30.08 382.03 -26.4 Z M 411.21 -11.13 L 411.21 -11.13 L 414.15 -9.56 Q 412.73 -6.7 410.81 -4.96 Q 408.9 -3.21 406.51 -2.3 Q 404.12 -1.39 401.1 -1.39 L 401.1 -1.39 Q 394.43 -1.39 390.67 -5.76 Q 386.91 -10.14 386.91 -15.64 L 386.91 -15.64 Q 386.91 -20.84 390.1 -24.9 L 390.1 -24.9 Q 394.13 -30.08 400.93 -30.08 L 400.93 -30.08 Q 407.88 -30.08 412.06 -24.78 L 412.06 -24.78 Q 415.02 -21.04 415.05 -15.46 L 415.05 -15.46 L 390.52 -15.46 Q 390.62 -10.68 393.56 -7.63 Q 396.5 -4.58 400.8 -4.58 L 400.8 -4.58 Q 402.9 -4.58 404.86 -5.32 Q 406.83 -6.05 408.21 -7.25 Q 409.59 -8.44 411.21 -11.13 Z M 390.89 -18.48 L 411.21 -18.48 Q 410.52 -21.29 409.17 -22.97 Q 407.83 -24.65 405.61 -25.69 Q 403.39 -26.72 400.95 -26.72 L 400.95 -26.72 Q 396.94 -26.72 394.05 -24.13 L 394.05 -24.13 Q 391.96 -22.24 390.89 -18.48 L 390.89 -18.48 Z M 434.5 -30.08 L 434.5 -30.08 Q 440.8 -30.08 444.96 -25.52 L 444.96 -25.52 Q 448.79 -21.37 448.79 -15.64 L 448.79 -15.64 Q 448.84 -1.49 448.79 -1.27 L 448.79 -1.27 Q 446.4 -1.27 445.08 -1.27 L 445.08 -1.27 Q 445.08 -1.44 445.08 -7.47 L 445.08 -7.47 Q 442.17 -2.04 434.5 -1.39 L 434.5 -1.39 Q 428.22 -1.39 424.25 -5.67 Q 420.28 -9.94 420.28 -15.64 L 420.28 -15.64 Q 420.28 -21.32 424.04 -25.5 L 424.04 -25.5 Q 428.2 -30.08 434.5 -30.08 Z M 434.5 -26.65 L 434.5 -26.65 Q 430.14 -26.65 427 -23.41 Q 423.86 -20.17 423.86 -15.59 L 423.86 -15.59 Q 423.86 -12.63 425.47 -9.89 Q 427.08 -7.15 430.91 -5.25 L 430.91 -5.25 Q 440.52 -3.11 444.58 -14 L 444.58 -14 Q 444.81 -17.48 443.83 -20.67 L 443.83 -20.67 Q 443.14 -22.11 441.92 -23.41 L 441.92 -23.41 Q 438.85 -26.65 434.5 -26.65 Z M 482.11 -23.71 L 482.11 -23.71 L 479.32 -21.96 Q 475.71 -26.79 469.46 -26.79 L 469.46 -26.79 Q 464.45 -26.79 461.15 -23.58 Q 457.85 -20.37 457.85 -15.76 L 457.85 -15.76 Q 457.85 -12.77 459.37 -10.12 Q 460.89 -7.47 463.53 -6.03 Q 466.17 -4.58 469.46 -4.58 L 469.46 -4.58 Q 475.51 -4.58 479.32 -9.36 L 479.32 -9.36 L 482.11 -7.55 Q 480.14 -4.61 476.84 -3 Q 473.54 -1.39 469.31 -1.39 L 469.31 -1.39 Q 462.86 -1.39 458.59 -5.5 Q 454.32 -9.61 454.32 -15.49 L 454.32 -15.49 Q 454.32 -19.47 456.32 -22.87 Q 458.33 -26.27 461.8 -28.18 Q 465.28 -30.08 469.61 -30.08 L 469.61 -30.08 Q 472.3 -30.08 474.83 -29.26 Q 477.35 -28.44 479.12 -27.11 Q 480.89 -25.77 482.11 -23.71 Z M 488.81 -1.37 L 488.81 -39.25 L 492.34 -39.25 L 492.34 -23.78 Q 494.46 -26.6 497.01 -27.99 Q 499.57 -29.38 502.55 -29.38 L 502.55 -29.38 Q 505.64 -29.38 508.01 -27.83 Q 510.37 -26.27 511.49 -23.66 Q 512.61 -21.04 512.61 -15.41 L 512.61 -15.41 L 512.61 -1.37 L 509.13 -1.37 L 509.13 -14.39 Q 509.13 -19.13 508.73 -20.72 L 508.73 -20.72 Q 508.08 -23.43 506.36 -24.79 Q 504.65 -26.15 501.86 -26.15 L 501.86 -26.15 Q 498.67 -26.15 496.14 -24.04 Q 493.61 -21.94 492.82 -18.83 L 492.82 -18.83 Q 492.34 -16.83 492.34 -11.38 L 492.34 -11.38 L 492.34 -1.37 L 488.81 -1.37 Z" stroke-linecap="round" />
</g>
<g transform="matrix(1.436103398170842 0 0 1.436103398170842 640.2456813819576 416.59989356023465)" id="logo-logo"  >
<g style=""  paint-order="stroke"   >
		<g transform="matrix(1.4335869658398237 0 0 1.4335869658398241 0 0)"  >
<g style=""  paint-order="stroke"   >
		<g transform="matrix(1 0 0 1 0 0)"  >
<linearGradient id="SVGID_1_507832" gradientUnits="userSpaceOnUse" gradientTransform="matrix(1 0 0 1 0 0)"  x1="0" y1="0" x2="0" y2="197">
<stop offset="0%" style="stop-color:rgb(248,77,158);stop-opacity: 1"/>
<stop offset="100%" style="stop-color:rgb(255,116,117);stop-opacity: 1"/>
</linearGradient>
<path style="stroke: none; stroke-width: 1; stroke-dasharray: none; stroke-linecap: butt; stroke-dashoffset: 0; stroke-linejoin: miter; stroke-miterlimit: 4; fill: url(#SVGID_1_507832); fill-rule: nonzero; opacity: 1;"  paint-order="stroke"  transform=" translate(-100, -98)" d="M 15.78 125.3 l 0.72 24.22 l 19.27 10.37 L 50 184.51 H 81.55 L 102.91 196 l 18.63 -11.49 H 150 l 15.78 -27.3 l 20.64 -12.73 l -0.65 -21.86 L 200 98 L 184.22 70.7 l -0.72 -24.22 L 164.23 36.12 L 150 11.49 H 118.45 L 97.09 0 L 78.47 11.49 H 50 L 34.22 38.78 L 13.58 51.52 l 0.65 21.85 L 0 98 Z M 198.29 98 l -12.61 21.81 l -1.36 -46 Z M 20.37 147.13 l -0.43 -14.64 L 32 153.39 Z M 50.85 183 l -12.6 -21.81 L 78.81 183 Z m 51.93 8.42 l -12.91 -6.94 H 114 Z M 149.15 183 H 123.93 l 39.19 -24.18 Z m 33.26 -40.71 L 169.93 150 L 182 129.11 Z m -2.78 -93.45 l 0.44 14.64 L 168 42.61 Z M 149.15 13 l 12.61 21.81 L 121.19 13 Z M 97.22 4.55 l 12.91 6.94 H 86 Z M 50.85 13 H 76.07 L 36.88 37.15 Z m 32.73 0 h 29.3 l 52.63 28.3 l 14.65 25.35 l 1.77 59.69 l -14.65 25.35 L 116.43 183 H 87.12 l -52.63 -28.3 L 19.84 129.38 L 18.07 69.69 L 32.72 44.34 Z M 30.06 46 L 18 66.88 l -0.39 -13.2 Z M 14.32 76.18 l 1.36 46 L 1.71 98 Z" stroke-linecap="round" />
</g>
</g>
</g>
		<g transform="matrix(0.9961649124487456 0 0 0.9961649124487456 -16.32737037111491 54.61657621860837)"  >
<g style=""  paint-order="stroke"   >
</g>
</g>
</g>
</g>
<g transform="matrix(1.9699870022450665 0 0 1.9699870022450665 640.2456813819576 407.3826586714531)" id="tagline-3a0f327a-aafa-4e44-aa87-18cbd55f8865-logo-path"  >
<linearGradient id="SVGID_4_507834" gradientUnits="userSpaceOnUse" gradientTransform="matrix(1 0 0 1 6.8799999999999955 -98.59)"  x1="0" y1="0" x2="0" y2="219">
<stop offset="0%" style="stop-color:rgb(248,77,158);stop-opacity: 1"/>
<stop offset="100%" style="stop-color:rgb(255,116,117);stop-opacity: 1"/>
</linearGradient>
<path style="stroke: none; stroke-width: 1; stroke-dasharray: none; stroke-linecap: butt; stroke-dashoffset: 0; stroke-linejoin: miter; stroke-miterlimit: 4; fill: url(#SVGID_4_507834); fill-rule: nonzero; opacity: 1;"  paint-order="stroke"  transform=" translate(-88.465, 48.605000000000004)" d="M 6.88 -72.63 L 6.88 -72.63 Q 6.88 -80.83 11.33 -86.82 Q 15.77 -92.81 23.03 -95.7 Q 30.29 -98.59 39.31 -98.59 L 39.31 -98.59 Q 49.5 -98.59 57.9 -95.84 Q 66.3 -93.08 71.46 -89.36 L 71.46 -89.36 L 71.46 -78.97 Q 65.61 -83.31 57.01 -86.4 Q 48.4 -89.5 39.17 -89.5 L 39.17 -89.5 Q 28.43 -89.5 22.62 -85.03 Q 16.8 -80.55 16.8 -73.32 L 16.8 -73.32 Q 16.8 -70.09 17.93 -67.47 Q 19.07 -64.85 20.72 -63.06 Q 22.38 -61.27 25.44 -59.66 Q 28.5 -58.04 31.15 -57.01 Q 33.8 -55.97 38.07 -54.6 L 38.07 -54.6 L 48.54 -51.15 Q 54.25 -49.29 58 -47.78 Q 61.76 -46.27 65.54 -43.96 Q 69.33 -41.65 71.46 -39 Q 73.6 -36.35 74.94 -32.5 Q 76.28 -28.64 76.28 -23.68 L 76.28 -23.68 Q 76.28 -11.64 67.44 -5.13 Q 58.59 1.38 44.27 1.38 L 44.27 1.38 Q 33.8 1.38 24.2 -1.58 Q 14.6 -4.54 7.78 -9.02 L 7.78 -9.02 L 7.78 -18.86 Q 15.01 -13.98 24.79 -10.64 Q 34.56 -7.3 44.27 -7.3 L 44.27 -7.3 Q 55.49 -7.3 61.1 -11.6 Q 66.71 -15.9 66.71 -23.27 L 66.71 -23.27 Q 66.71 -27.19 65.44 -30.09 Q 64.17 -32.98 61.24 -35.18 Q 58.31 -37.38 54.84 -38.97 Q 51.36 -40.55 45.71 -42.41 L 45.71 -42.41 L 32.56 -46.68 Q 28.09 -48.12 24.92 -49.4 Q 21.76 -50.67 18.07 -52.84 Q 14.39 -55.01 12.15 -57.59 Q 9.91 -60.17 8.4 -64.03 Q 6.88 -67.88 6.88 -72.63 Z M 105.2 0 L 95.84 0 L 95.84 -97.01 L 134.8 -97.01 Q 150.91 -97.01 159.9 -89.92 Q 168.88 -82.82 168.88 -68.5 L 168.88 -68.5 Q 168.88 -55.49 160.17 -48.54 Q 151.46 -41.58 136.46 -41.58 L 136.46 -41.58 L 133.36 -41.58 L 170.05 0 L 158.35 0 L 122.69 -41.58 L 105.2 -41.58 L 105.2 0 Z M 105.2 -88.26 L 105.2 -49.23 L 134.53 -49.23 Q 146.23 -49.23 152.77 -54.08 Q 159.31 -58.93 159.31 -68.5 L 159.31 -68.5 Q 159.31 -88.26 134.53 -88.26 L 134.53 -88.26 L 105.2 -88.26 Z" stroke-linecap="round" />
</g>
</svg>